# Blender v2.79 (sub 0) OBJ File: 'player.blend'
# www.blender.org
mtllib player.mtl
o Player
v -0.870502 -0.349809 1.401714
v -0.870502 0.349809 1.401714
v -0.680501 -0.160013 0.233745
v -0.680501 0.160013 0.233745
v 0.870502 -0.349809 1.401714
v 0.870502 0.349809 1.401714
v 0.680501 -0.160013 0.233745
v 0.680501 0.160013 0.233745
v 0.000000 0.000000 -0.946060
v 0.000000 0.000000 -0.946060
v 0.000000 -0.500000 1.053940
v 0.000000 0.500000 1.053940
vn -0.9870 0.0000 -0.1606
vn 0.8662 0.0000 -0.4996
vn 0.9870 0.0000 -0.1606
vn 0.3710 0.0000 0.9286
vn 0.2107 -0.9525 -0.2200
vn -0.2107 0.9525 -0.2200
vn 0.2107 0.9525 -0.2200
vn -0.2107 -0.9525 -0.2200
vn -0.3710 0.0000 0.9286
vn -0.8662 0.0000 -0.4996
usemtl Material
s off
f 1//1 2//1 4//1 3//1
f 9//2 10//2 8//2 7//2
f 7//3 8//3 6//3 5//3
f 11//4 12//4 2//4 1//4
f 9//5 7//5 5//5 11//5
f 10//6 4//6 2//6 12//6
f 8//7 10//7 12//7 6//7
f 3//8 9//8 11//8 1//8
f 5//9 6//9 12//9 11//9
f 3//10 4//10 10//10 9//10
